<?xml version="1.0" ?><svg id="object" viewBox="0 0 32 32" xmlns="http://www.w3.org/2000/svg"><defs><style>.cls-1{fill:#ffc661;}.cls-2{fill:#e49f4e;}.cls-3{fill:#c9c1f5;}.cls-4{fill:#afbdd6;}.cls-5{fill:#eef5fd;}.cls-6{fill:#d7e2f2;}</style></defs><title/><circle class="cls-1" cx="16" cy="16" r="15"/><path class="cls-2" d="M2.63,17.5A15,15,0,0,1,26.92,5.75a15,15,0,1,0-20.22,22A15,15,0,0,1,2.63,17.5Z"/><path class="cls-3" d="M21,23a.93.93,0,0,1-.45-.11l-12-6a1,1,0,0,1,0-1.78l12-6a1,1,0,1,1,.9,1.78L11.24,16l10.21,5.11a1,1,0,0,1,.44,1.34A1,1,0,0,1,21,23Z"/><path class="cls-4" d="M22,21.92a1,1,0,0,0-.53-.81L12,16.36l-.46.23L21.7,21.7A.85.85,0,0,1,22,21.92Z"/><path class="cls-4" d="M8.25,16.59a1,1,0,0,1,.55-.89l12-6A1,1,0,0,1,22,10a1,1,0,0,0-.11-.41,1,1,0,0,0-1.34-.44l-12,6A1,1,0,0,0,8,16a1,1,0,0,0,.26.66S8.25,16.62,8.25,16.59Z"/><circle class="cls-5" cx="21" cy="10" r="4"/><circle class="cls-5" cx="21" cy="22" r="4"/><circle class="cls-5" cx="9" cy="16" r="4"/><path class="cls-6" d="M18,10.59a4,4,0,0,0,1.45,3.09,4,4,0,1,1,4.05-6.8A3.93,3.93,0,0,0,22,6.59,4,4,0,0,0,18,10.59Z"/><path class="cls-6" d="M18,22.59a4,4,0,0,0,1.45,3.09,4,4,0,1,1,4.05-6.8,3.93,3.93,0,0,0-1.5-.29A4,4,0,0,0,18,22.59Z"/><path class="cls-6" d="M6,16.59a4,4,0,0,0,1.45,3.09,4,4,0,1,1,4.05-6.8,3.93,3.93,0,0,0-1.5-.29A4,4,0,0,0,6,16.59Z"/></svg>